PathFileType	4	(X/Y/Z)	Patient4_TMGait_0pt4_01_left_08.trc.trc
DataRate	CameraRate	NumFrames	NumMarkers	Units	OrigDataRate	OrigDataStartFrame	OrigNumFrames
74.866310160428	74.866310160428	4	33	mm	74.866310160428	106	       141
Frame#	Time	Sacral			L.Shoulder			Chest			R.Shoulder			Neck			R.ASIS			L.ASIS			R.Thigh.Superior			R.Thigh.Lateral			R.Thigh.Inferior			R.Patella			L.Thigh.Superior			L.Thigh.Lateral			L.Thigh.Inferior			L.Patella			L.Shank.Superior			L.Shank.Lateral			L.Shank.Inferior			R.Shank.Superior			R.Shank.Lateral			R.Shank.Inferior			R.Heel			R.Midfoot.Superior			R.Midfoot.Lateral			R.Toe			L.Heel			L.Midfoot.Lateral			L.Midfoot.Superior			L.Toe			L.Elbow			L.Wrist			R.Elbow			R.Wrist			
		X1	Y1	Z1	X2	Y2	Z2	X3	Y3	Z3	X4	Y4	Z4	X5	Y5	Z5	X6	Y6	Z6	X7	Y7	Z7	X8	Y8	Z8	X9	Y9	Z9	X10	Y10	Z10	X11	Y11	Z11	X12	Y12	Z12	X13	Y13	Z13	X14	Y14	Z14	X15	Y15	Z15	X16	Y16	Z16	X17	Y17	Z17	X18	Y18	Z18	X19	Y19	Z19	X20	Y20	Z20	X21	Y21	Z21	X22	Y22	Z22	X23	Y23	Z23	X24	Y24	Z24	X25	Y25	Z25	X26	Y26	Z26	X27	Y27	Z27	X28	Y28	Z28	X29	Y29	Z29	X30	Y30	Z30	X31	Y31	Z31	X32	Y32	Z32	X33	Y33	Z33	

106	10.702500000000	805.419319689186	1007.797933359566	557.311451259733	965.154755680581	1433.385324990901	354.143939831334	1083.256863922853	1368.399730041159	505.637994217792	1019.039107678963	1445.197189957012	686.387879586192	964.936295332533	1498.861204030302	508.755915821534	1043.144078464418	942.970569518641	653.153493177053	1004.962118463578	969.274881348293	381.550477425851	1068.742408456571	737.036914274879	617.437402181538	982.240306312695	631.277733356128	680.074414534863	1050.505618013055	576.079705782781	595.477174280539	1043.584750064353	489.929609411308	598.815407639698	1092.810509281361	787.673350782259	406.856934354590	1047.480667065147	660.869843277776	327.904914743565	1154.109786672880	600.749041471389	383.738490079056	1172.036637485504	517.123093333112	374.990921237942	1120.053911792566	444.629553018549	366.073940337602	992.680224078277	370.633243958463	319.866198663910	1017.027996218588	240.410852217734	368.525704059846	1012.760195676248	401.946332592383	604.689718023559	939.233323693263	299.597449094700	664.767074402762	974.526360564001	204.908875101789	597.864643174637	833.641589633241	43.392237747303	565.047428123283	1004.864883203749	96.876658706660	602.680556586325	916.534582433055	37.087062992386	641.014870811561	1125.046534818009	42.487139194613	631.698483382700	853.634187836018	125.844747841678	410.993923916877	915.795802941540	102.825518187430	325.176094330021	1015.405211675421	137.440606954268	343.159433799775	1117.638628834350	52.675212820075	303.573708292702	891.763392873250	1081.294759468473	260.017944344847	927.103539012540	823.262086832723	260.900028416332	1080.811116102063	1113.930857736708	828.513280944706	1325.469246161002	1051.064681542210	793.114671157027	
107	10.715857142857	804.835224717130	1008.686639260646	559.332175869848	963.620727390816	1433.702777551458	355.103877306635	1083.389583846378	1368.252490983990	505.057845055893	1021.692990485142	1445.370724315731	686.561952378651	965.349236002981	1499.022267385416	509.511111244520	1042.985065656997	942.557840864806	652.555691071492	1002.590344632523	969.995720409868	381.337314505271	1065.952683043463	736.309465991691	616.394824537582	979.155241043514	631.279895262570	680.211162298867	1045.901764899389	575.501988751447	595.011412645722	1038.385198539157	489.703339232038	598.625004047669	1090.302887606405	788.616317455323	406.761730308335	1045.283283480087	661.810057794049	327.649668209567	1151.304628599906	601.658351818191	384.398692140091	1170.638317088528	519.911799090989	375.343351938326	1122.569551766716	446.764948105350	365.803887193186	1000.874228400997	364.970348464545	318.325125736897	1033.500429584819	236.156467267773	366.739394511730	1007.511808826468	401.825847879403	604.696790731950	934.093621253690	299.513195622514	665.072209526163	969.131068026949	204.837703941288	597.972017780358	828.228432524867	43.354881437258	565.129618882070	999.439296038728	96.835628801138	602.751521000053	911.134035661322	37.022737795700	641.076119527567	1119.632593443769	42.464754487447	631.699674745617	878.070301661400	110.432660919375	407.904455762157	942.274816202203	92.158324277385	322.394563870210	1039.238015701720	133.292761128759	341.024787048208	1147.301163969437	55.983440953133	301.807993773067	885.211118484968	1082.410436371835	262.554792183101	916.740105330789	823.861835328942	264.305178532189	1089.752787406622	1115.584227758758	828.018256249418	1335.968363370900	1062.402895604063	789.713823782283	
108	10.729214285714	804.182329880515	1009.489026897139	561.129285507491	962.204357447277	1433.922901307488	355.925457875878	1083.543901332864	1367.968593126155	504.372278388044	1024.298414168714	1445.381081149146	686.587420984229	965.830597848178	1499.052250495811	510.190276883444	1042.792681519760	942.088249940644	651.842690805039	1000.291149311788	970.504085428199	380.979889581500	1063.195655831098	735.574897269954	615.409958608134	976.101597833057	631.256178418616	680.348243418744	1041.374099943230	574.925098751571	594.604109451806	1033.279215419072	489.462029416948	598.513641790775	1087.473871738100	789.014716410860	406.654061264189	1042.722042060814	662.368672074157	327.208039825502	1147.822402414988	601.944847772722	385.212155374060	1168.547887381738	522.272585860215	375.826351757011	1124.486130896982	448.720140898587	365.655629593956	1009.172720837994	359.334312845459	316.523390359892	1049.833925456520	232.475963859509	365.064629209489	1002.333186808916	401.681539491340	604.743360787193	929.000221921571	299.424678261546	665.447678262577	963.755210219989	204.754193973706	598.115174356968	822.818870289024	43.326417221331	565.223608939277	994.021593453068	96.788426370309	602.838710007523	905.731553994751	36.948575709149	641.129427455075	1114.225792940454	42.422296359485	631.695639444827	902.852159817211	96.350402789669	404.487207904959	969.198495261551	82.433910906668	319.739490667506	1063.120102791701	129.831655583694	339.282029173789	1176.586021348356	59.870002408125	301.380170142203	879.101048554625	1083.432793868723	265.008552178076	906.989158747447	824.452457695183	267.486370346695	1098.449785669721	1117.106288071285	827.214536205469	1345.751467722330	1073.046436331570	786.156083365057	
109	10.742571428571	803.474671695285	1010.184186570375	562.680975928514	960.923102629331	1434.044884225247	356.588262836538	1083.709493434725	1367.558342075380	503.592490422950	1026.799194993416	1445.236792681774	686.464030597624	966.367575469674	1498.957311013755	510.779458565346	1042.569900373867	941.576823772264	651.044815599006	998.098945798672	970.793601160803	380.494877472731	1060.533110748337	734.842552883283	614.529216391263	973.123989811645	631.201421537429	680.479529213860	1037.009651617589	574.350537268355	594.267616969879	1028.355674901097	489.193235890684	598.475906445959	1084.384080319150	788.910794634817	406.549440317385	1039.900967425518	662.588971181837	326.574839975117	1143.844414733793	601.706766958802	386.093316264392	1165.932243164321	524.242691467055	376.385940468649	1125.875240983846	450.517246200293	365.605114380815	1017.446127556180	353.970634764564	314.555915144680	1065.688924866689	229.550957580156	363.582860732305	997.292128314011	401.505210218099	604.820710823070	923.995974555346	299.338722961393	665.878076734861	958.430140335351	204.657466943116	598.287559267006	817.413627487275	43.311924809225	565.327475522147	988.616869830309	96.737013035368	602.942777332223	900.328692246697	36.869002595572	641.175547365390	1108.827546287212	42.358092418008	631.690229741317	927.375730522832	84.036345611821	400.966280573387	995.926916043667	73.979259097030	317.378643862842	1086.525412113753	127.229965645352	338.008126130551	1204.849566535925	64.293101596733	302.281096750097	873.439358845098	1084.351530142734	267.338337330375	897.887044775595	825.015900810887	270.402707797573	1106.863955449906	1118.486529638238	826.098042525769	1354.849278483740	1082.903232626022	782.477092088827	
